<?xml version="1.0" encoding="UTF-8"?>
<svg id="a" xmlns="http://www.w3.org/2000/svg" version="1.1" viewBox="0 0 203 65">
  <!-- Generator: Adobe Illustrator 29.8.1, SVG Export Plug-In . SVG Version: 2.1.1 Build 2)  -->
  <defs>
    <style>
      .st0 {
        fill: #fff;
        fill-rule: evenodd;
      }
    </style>
  </defs>
  <g id="b">
    <path class="st0" d="M15.13,39.72c-3.99-2.8-6.72-7.08-7.57-11.9-.85-4.82.23-9.78,3.02-13.79,2.79-4.01,7.05-6.75,11.84-7.61,4.8-.86,9.73.23,13.73,3.03l3.86-5.59C36.31,1.42,31.97.11,27.53.12,15.21.12,5.22,9.98,5.22,22.15c0,3.58.88,7.1,2.55,10.25,1.67,3.16,4.09,5.85,7.04,7.86.48.34,1.41.87,1.57.71s-.77-.9-1.25-1.23c0,0,0-.02,0-.02ZM33.15,33.12v-6.7h17.93c-.71,13.15-11.85,23.6-25.48,23.6S.18,38.96.07,25.28v-.2c0-.27.12-.86.37-.86s.24.69.24.97c.5,12.94,12.26,22.71,24.32,22.71,9.43,0,16.32-5.98,19.03-14.77h-10.88,0ZM40.24,55.7c.38.16.71.4.98.71l1.18-.82c-.89-.86-2.01-1.18-3.33-1.18-2.1,0-4.07.95-4.07,2.86,0,1.66,1.28,2.28,2.96,2.74l.32.09c1.9.54,2.79.79,2.79,1.95s-1.37,1.72-2.59,1.72c-1.03,0-2.04-.37-2.54-1.11l-1.22.82c.81.98,2.29,1.39,3.66,1.39,2.16,0,4.2-.97,4.2-2.92s-1.67-2.45-3.57-2.95-2.51-.91-2.51-1.83c0-1.18,1.3-1.67,2.55-1.67.41-.02.81.05,1.19.21h0ZM12.78,54.66h-1.41v9.96h1.41v-9.96ZM19.11,54.66h1.78l6.91,8.27h.03v-8.27h1.42v9.96h-1.79l-6.9-8.28h-.03v8.28h-1.41v-9.96s-.01,0-.01,0ZM56.28,55.75h-3.94v8.87h-1.41v-8.87h-3.94v-1.09h9.29s0,1.09,0,1.09ZM61.32,54.66h1.41v9.96h-1.41v-9.96ZM77.04,55.75h-3.94v8.87h-1.4v-8.87h-3.94v-1.09h9.29v1.09h0ZM86.53,64.86c3.26,0,4.48-1.89,4.48-4.06l.03-6.13h-1.42v5.99c0,1.6-.69,3.12-3.07,3.12s-3.08-1.52-3.08-3.12v-5.99h-1.42v6.13c0,2.16,1.22,4.06,4.48,4.06ZM105.28,55.75h-3.94v8.87h-1.41v-8.87h-3.93v-1.09h9.28s0,1.09,0,1.09ZM121.75,57.57c-.41-.27-.89-.42-1.38-.42-.32,0-.65.06-.95.19-.3.12-.57.31-.8.54s-.41.5-.54.81c-.12.3-.19.62-.19.95,0,.49.14.98.41,1.39.27.41.66.73,1.11.92s.95.24,1.43.15c.48-.1.92-.33,1.27-.68s.58-.79.68-1.27.05-.98-.14-1.44-.51-.84-.91-1.12v-.02h.01ZM137.61,59.04h2.39c1.42,0,2.39-.53,2.39-1.64s-.98-1.64-2.39-1.64h-2.39v3.27h0ZM136.21,54.67h3.54c2.18,0,4.17.65,4.17,2.73s-2.22,2.75-3.9,2.75h-2.4v4.5h-1.41s0-9.98,0-9.98ZM152.79,56.17h.03l2.35,4.91h-4.85l2.47-4.91ZM153.51,54.67h-1.33l-5.26,9.96h1.61l1.22-2.45h5.95l1.22,2.45h1.66l-5.07-9.96ZM164.93,59.04h1.27c1.56,0,3.6,0,3.6-1.64,0-1.44-1.5-1.64-2.88-1.64h-1.99v3.27h0ZM163.54,54.67h3.04c2.3,0,4.75.28,4.75,2.74,0,1.44-1.13,2.39-2.98,2.62l3.38,4.6h-1.74l-3.23-4.5h-1.82v4.5h-1.4v-9.96ZM177.16,54.66h1.42v9.96h-1.42v-9.96ZM190.57,56.41c-.27-.31-.61-.55-.98-.71-.38-.16-.79-.23-1.19-.2-1.25,0-2.54.49-2.54,1.67,0,.92.61,1.33,2.51,1.83,1.89.5,3.57,1,3.57,2.95s-2.04,2.92-4.19,2.92c-1.38,0-2.87-.41-3.66-1.39l1.22-.82c.51.74,1.51,1.11,2.53,1.11,1.22,0,2.6-.58,2.6-1.72s-.89-1.41-2.78-1.95l-.33-.09c-1.68-.46-2.95-1.08-2.95-2.74,0-1.91,1.95-2.86,4.04-2.86,1.33,0,2.44.31,3.33,1.18l-1.17.82h-.01ZM54.44,16.89l-.02-.68h5.24v1.39l-.06,15.26c0,6.53,0,13.94,10.21,13.94s10.02-8.89,10.02-14.77c0-8.53,0-12.11-.12-15.13l-.03-.68h3.77v.67c-.02,1.43-.02,3.24,0,5.22v3.33c.02,3.43.05,7.3,0,10.79-.1,8.82-5.54,14.08-14.54,14.08-9.96,0-14.59-4.45-14.59-13.99l.04-4.09.03-3.27.05-5.91v-.35h0c.03-2.31.05-4.3,0-5.79,0,0,0-.02,0-.02ZM105.69,15.61v.67c.06,3.97.41,30.76.33,32.71l-.03.68h3.46v-3.94c0-5.54,0-16.21.04-20.29l.96.97.11.11c7.7,7.84,15.66,15.94,22.42,23.55l.2.22h1.82v-.67c-.04-1.64-.16-21.13-.21-29.25h0v-.3c0-1.94-.02-3.15-.02-3.21v-.65h-3.85v.67s0,.29.02.75v.05h0c.07,3.16.34,14.85.39,22.24-5.11-5.01-12.95-13.15-19.74-20.2l-1.63-1.69-2.35-2.43h-1.92ZM145.58,32.95c0,8.96,4.77,14.31,12.76,14.31s12.8-5.35,12.8-14.31-4.81-14.31-12.8-14.31-12.76,5.35-12.76,14.31ZM139.99,32.95c0-10.53,7.2-17.34,18.35-17.34s18.41,6.8,18.41,17.34-7.25,17.35-18.41,17.35-18.35-6.82-18.35-17.35ZM202.25,16.21c-4.55.15-9.01.23-12.89.23s-8.34-.08-12.89-.23h-.68v3.43l.68-.02c2.49-.09,6.72-.16,10.11-.17.08,2.95.13,6.37.13,9.52v8.02c0,3.68-.02,7.93-.22,12.04l-.03.69h5.8l-.03-.69c-.2-4.09-.22-8.37-.22-12.04v-8.04c0-3.14.05-6.54.14-9.52,3.39,0,7.54.08,10.11.17l.68.02v-3.42l-.68.02h-.01ZM91.81,16.21h5.39v33.25h-5.39V16.21Z"/>
  </g>
</svg>