<svg width="131" height="40" viewBox="0 0 131 40" fill="none" xmlns="http://www.w3.org/2000/svg">
<path d="M18.6224 35.674C18.5244 35.842 18.2705 35.7981 18.2371 35.6075L16.6914 26.7887C16.6665 26.6465 16.7911 26.5221 16.9336 26.5467L23.0107 27.5964C23.1533 27.621 23.2269 27.7797 23.1538 27.905L18.6224 35.674Z" fill="#D9D9D9"/>
<path d="M33.4281 29.9054C33.5275 30.0723 33.3582 30.27 33.1731 30.2031L24.607 27.1061C24.4708 27.0569 24.4259 26.8899 24.5196 26.7806L28.4848 22.1513C28.5785 22.042 28.7541 22.0562 28.8273 22.1792L33.4281 29.9054Z" fill="#D9D9D9"/>
<path d="M35.392 14.3636C35.5891 14.3627 35.6803 14.6081 35.5287 14.7316L28.5092 20.4492C28.3983 20.5395 28.2295 20.493 28.1795 20.3584L26.0701 14.6809C26.02 14.5463 26.1188 14.4044 26.2631 14.4037L35.392 14.3636Z" fill="#D9D9D9"/>
<ellipse cx="21.4108" cy="20.4676" rx="7.75745" ry="7.49802" fill="white"/>
<path d="M0.626953 40L4.54546 36.9285H21.0032V40H0.626953Z" fill="#B7A581"/>
<path d="M38.4227 19.5924C38.4227 29.5114 30.2054 37.6075 20 37.6075C9.79463 37.6075 1.57726 29.5114 1.57726 19.5924C1.57726 9.67337 9.79463 1.57726 20 1.57726C30.2054 1.57726 38.4227 9.67337 38.4227 19.5924Z" stroke="#B7A581" stroke-width="3.15451"/>
<path d="M66.3723 24.0037C66.3723 24.8714 66.1587 25.6189 65.7316 26.2463C65.3111 26.8737 64.7037 27.3543 63.9094 27.688C63.1218 28.0218 62.1807 28.1886 61.086 28.1886C60.5521 28.1886 60.0415 28.1586 59.5542 28.0985C59.067 28.0385 58.6064 27.9517 58.1726 27.8382C57.7454 27.7181 57.3549 27.5746 57.0012 27.4077V25.145C57.5952 25.4053 58.2593 25.6423 58.9936 25.8559C59.7278 26.0628 60.4753 26.1662 61.2362 26.1662C61.857 26.1662 62.3709 26.0861 62.778 25.926C63.1919 25.7591 63.4989 25.5255 63.6991 25.2251C63.8994 24.9181 63.9995 24.561 63.9995 24.1538C63.9995 23.72 63.8827 23.3529 63.6491 23.0525C63.4155 22.7522 63.0617 22.4785 62.5878 22.2316C62.1206 21.9779 61.5332 21.7076 60.8257 21.4206C60.3452 21.227 59.8846 21.0068 59.4441 20.7598C59.0102 20.5129 58.6231 20.2225 58.2827 19.8888C57.9423 19.5551 57.672 19.1613 57.4717 18.7074C57.2782 18.2468 57.1814 17.7062 57.1814 17.0855C57.1814 16.2578 57.3783 15.5503 57.7721 14.9629C58.1726 14.3756 58.7332 13.925 59.4541 13.6113C60.1816 13.2976 61.0293 13.1408 61.9971 13.1408C62.7647 13.1408 63.4856 13.2209 64.1597 13.3811C64.8405 13.5412 65.508 13.7682 66.1621 14.0619L65.4012 15.9942C64.8005 15.7472 64.2164 15.5503 63.6491 15.4035C63.0884 15.2566 62.5144 15.1832 61.927 15.1832C61.4198 15.1832 60.9893 15.26 60.6355 15.4135C60.2818 15.567 60.0114 15.7839 59.8245 16.0642C59.6443 16.3379 59.5542 16.665 59.5542 17.0454C59.5542 17.4726 59.6577 17.833 59.8646 18.1267C60.0782 18.4137 60.4052 18.6773 60.8458 18.9176C61.293 19.1579 61.867 19.4249 62.5678 19.7186C63.3754 20.0523 64.0596 20.4027 64.6202 20.7698C65.1876 21.1369 65.6214 21.5775 65.9218 22.0914C66.2221 22.5987 66.3723 23.2361 66.3723 24.0037ZM74.6421 16.695C75.957 16.695 77.0116 17.1756 77.8059 18.1367C78.6068 19.0978 79.0073 20.5262 79.0073 22.4218C79.0073 23.6766 78.8204 24.7345 78.4467 25.5956C78.0796 26.4499 77.5623 27.0973 76.8948 27.5379C76.234 27.9717 75.4631 28.1886 74.5821 28.1886C74.0214 28.1886 73.5342 28.1152 73.1203 27.9684C72.7065 27.8215 72.3528 27.6313 72.0591 27.3977C71.7654 27.1574 71.5184 26.8971 71.3182 26.6168H71.178C71.2114 26.8838 71.2414 27.1808 71.2681 27.5078C71.3015 27.8282 71.3182 28.1219 71.3182 28.3889V32.9042H68.9554V16.9052H70.8777L71.2081 18.4371H71.3182C71.5251 18.1234 71.7754 17.833 72.0691 17.566C72.3694 17.299 72.7299 17.0888 73.1504 16.9353C73.5775 16.7751 74.0748 16.695 74.6421 16.695ZM74.0114 18.6173C73.364 18.6173 72.8433 18.7474 72.4495 19.0077C72.0624 19.2614 71.7787 19.6452 71.5985 20.1591C71.425 20.673 71.3315 21.3171 71.3182 22.0914V22.4218C71.3182 23.2428 71.4016 23.9403 71.5685 24.5143C71.742 25.0816 72.0257 25.5155 72.4195 25.8158C72.82 26.1095 73.3606 26.2563 74.0414 26.2563C74.6154 26.2563 75.0893 26.0995 75.4631 25.7858C75.8436 25.4721 76.1272 25.0249 76.3141 24.4442C76.501 23.8635 76.5945 23.1794 76.5945 22.3918C76.5945 21.197 76.3809 20.2692 75.9537 19.6085C75.5332 18.9477 74.8858 18.6173 74.0114 18.6173ZM91.392 16.9052V27.9884H89.5398L89.2194 26.4966H89.0893C88.8557 26.8771 88.5587 27.1941 88.1982 27.4478C87.8378 27.6947 87.4373 27.8783 86.9968 27.9984C86.5563 28.1252 86.0924 28.1886 85.6052 28.1886C84.7708 28.1886 84.0567 28.0485 83.4626 27.7681C82.8752 27.4811 82.4247 27.0406 82.111 26.4466C81.7973 25.8525 81.6404 25.085 81.6404 24.1438V16.9052H84.0033V23.7033C84.0033 24.5643 84.1768 25.2084 84.5239 25.6356C84.8776 26.0628 85.4249 26.2764 86.1658 26.2764C86.88 26.2764 87.4473 26.1295 87.8678 25.8358C88.2883 25.5422 88.5854 25.1083 88.7589 24.5343C88.9391 23.9603 89.0292 23.2561 89.0292 22.4218V16.9052H91.392ZM100.383 16.695C100.57 16.695 100.773 16.705 100.993 16.725C101.214 16.7451 101.404 16.7718 101.564 16.8051L101.344 19.0077C101.204 18.9677 101.03 18.9377 100.823 18.9176C100.623 18.8976 100.443 18.8876 100.283 18.8876C99.8621 18.8876 99.4616 18.9577 99.0812 19.0978C98.7007 19.2313 98.3636 19.4383 98.07 19.7186C97.7763 19.9922 97.546 20.336 97.3791 20.7498C97.2123 21.1636 97.1288 21.6442 97.1288 22.1915V27.9884H94.766V16.9052H96.6082L96.9286 18.8576H97.0387C97.259 18.4638 97.5327 18.1033 97.8597 17.7763C98.1868 17.4492 98.5605 17.1889 98.981 16.9953C99.4082 16.7951 99.8754 16.695 100.383 16.695ZM108.082 28.1886C107.034 28.1886 106.126 27.9851 105.359 27.5779C104.591 27.1708 104 26.5467 103.587 25.7057C103.173 24.8647 102.966 23.7968 102.966 22.5019C102.966 21.1536 103.193 20.0523 103.647 19.198C104.1 18.3436 104.728 17.7129 105.529 17.3057C106.336 16.8986 107.261 16.695 108.302 16.695C108.963 16.695 109.56 16.7617 110.094 16.8952C110.635 17.022 111.092 17.1789 111.466 17.3658L110.765 19.248C110.358 19.0812 109.941 18.941 109.514 18.8275C109.086 18.7141 108.676 18.6573 108.282 18.6573C107.635 18.6573 107.094 18.8008 106.66 19.0878C106.233 19.3748 105.913 19.802 105.699 20.3694C105.492 20.9367 105.389 21.6409 105.389 22.4819C105.389 23.2962 105.495 23.9836 105.709 24.5443C105.923 25.0983 106.24 25.5188 106.66 25.8058C107.081 26.0861 107.598 26.2263 108.212 26.2263C108.819 26.2263 109.363 26.1529 109.844 26.006C110.325 25.8592 110.778 25.669 111.206 25.4354V27.4778C110.785 27.7181 110.335 27.895 109.854 28.0084C109.373 28.1286 108.783 28.1886 108.082 28.1886ZM116.171 27.9884H113.809V12.4099H116.171V27.9884ZM123.951 16.695C124.939 16.695 125.786 16.8986 126.494 17.3057C127.201 17.7129 127.745 18.2902 128.126 19.0378C128.506 19.7853 128.696 20.6797 128.696 21.721V22.9825H121.298C121.324 24.0571 121.611 24.8847 122.159 25.4654C122.713 26.0461 123.487 26.3364 124.481 26.3364C125.189 26.3364 125.823 26.2697 126.384 26.1362C126.951 25.996 127.535 25.7925 128.136 25.5255V27.4377C127.582 27.6981 127.018 27.8883 126.444 28.0084C125.87 28.1286 125.182 28.1886 124.381 28.1886C123.293 28.1886 122.335 27.9784 121.508 27.5579C120.687 27.1307 120.043 26.4966 119.575 25.6556C119.115 24.8146 118.885 23.7701 118.885 22.5219C118.885 21.2804 119.095 20.2259 119.515 19.3582C119.936 18.4905 120.527 17.8297 121.288 17.3758C122.048 16.9219 122.936 16.695 123.951 16.695ZM123.951 18.4671C123.21 18.4671 122.609 18.7074 122.149 19.188C121.695 19.6685 121.428 20.3727 121.348 21.3005H126.394C126.387 20.7465 126.293 20.2559 126.113 19.8287C125.94 19.4015 125.673 19.0678 125.312 18.8275C124.959 18.5872 124.505 18.4671 123.951 18.4671Z" fill="#B7A581"/>
</svg>
